<svg width="101" height="100" viewBox="0 0 101 100" fill="none" xmlns="http://www.w3.org/2000/svg">
<path d="M81.0779 39.6331C81.0225 39.5747 80.9636 39.5225 80.9031 39.4734C72.9556 30.6364 62.237 26 51.0999 26C45.404 26 39.9015 27.1912 34.7457 29.5404C28.9299 32.1904 25.0768 35.4582 21.122 39.6331C20.4157 40.3787 20.4365 41.5757 21.122 42.2993L26.2154 47.6762C26.9385 48.4394 28.1112 48.4034 28.7943 47.6175C34.5695 40.9717 42.4911 37.3117 51.0999 37.3117C59.7086 37.3117 67.6302 40.9718 73.4054 47.6175C74.0924 48.408 75.2655 48.4351 75.9843 47.6762L81.0778 42.2993C81.0944 42.2817 81.1087 42.2627 81.1246 42.2446C81.1355 42.2318 81.147 42.2192 81.1574 42.2061C81.7724 41.4656 81.7471 40.3395 81.0779 39.6331V39.6331ZM51.1 56.1645C47.2231 56.1645 43.634 58.0008 41.2528 61.2026C40.6947 61.9531 40.7557 63.0253 41.3947 63.6999L49.8371 72.6121C50.5343 73.3482 51.6658 73.3479 52.3628 72.6121L60.8052 63.6999C61.4442 63.0253 61.5051 61.9531 60.9471 61.2026C58.566 58.0008 54.9769 56.1645 51.1 56.1645V56.1645ZM51.1 41.0823C43.4654 41.0823 36.3262 44.3912 31.1911 50.3992C30.5541 51.1444 30.582 52.2856 31.2542 52.9952L36.2952 58.3168C37.0274 59.09 38.224 59.0432 38.902 58.2251C41.974 54.5193 46.42 52.394 51.1 52.394C55.7799 52.394 60.2259 54.5193 63.298 58.2251C63.9772 59.0447 65.1735 59.0887 65.9048 58.3168L70.9458 52.9952C71.618 52.2856 71.6458 51.1444 71.0089 50.3992C65.874 44.3916 58.735 41.0823 51.1 41.0823Z" fill="url(#paint0_linear_7009_5555)"/>
<defs>
<linearGradient id="paint0_linear_7009_5555" x1="36.4765" y1="31.0139" x2="58.9564" y2="72.7742" gradientUnits="userSpaceOnUse">
<stop stop-color="#28DCF3"/>
<stop offset="1" stop-color="#1AC3D9"/>
</linearGradient>
</defs>
</svg>
